<svg version="1.1" xmlns="http://www.w3.org/2000/svg" xmlns:xlink="http://www.w3.org/1999/xlink" role="img" width="206" height="90" viewbox="0 0 206 90"><title>Deploy</title><desc>Generated by logo.svg, https://github.com/bubkoo/logo.svg</desc><path fill="#2b68a7" d="M-0.34 70.35L0.17 67.66L1 67.66Q3.18 67.66 4.90 66.86Q6.63 66.06 7.27 63.06L13.93 31.70Q14.06 31.25 14.12 30.77Q14.18 30.29 14.18 29.90Q14.18 28.18 12.74 27.76Q11.30 27.34 9.58 27.34L8.74 27.34L9.32 24.66L27.24 24.66Q35.88 24.66 40.65 29.10Q45.42 33.55 45.42 42.06Q45.42 47.76 43.75 52.88Q42.09 58 38.82 61.94Q35.56 65.87 30.79 68.11Q26.02 70.35 19.82 70.35L-0.34 70.35M12.84 67.09L18.41 67.09Q24.68 67.09 29.19 63.79Q33.70 60.50 36.07 54.70Q38.44 48.91 38.44 41.36Q38.44 34.38 35.14 31.12Q31.85 27.86 26.28 27.86L21.22 27.86L12.84 67.09ZM62.63 70.99Q59.18 70.99 56.36 69.52Q53.54 68.05 51.85 65.14Q50.15 62.22 50.15 57.74Q50.15 54.22 51.37 50.32Q52.58 46.42 55.02 43.02Q57.45 39.63 61 37.52Q64.55 35.41 69.22 35.41Q73.26 35.41 75.50 37.36Q77.74 39.31 77.74 42.77Q77.74 46.16 75.34 49.07Q72.94 51.98 68.74 53.78Q64.55 55.57 59.18 55.57L56.94 55.57Q56.87 56.27 56.84 56.94Q56.81 57.62 56.81 58.26Q56.81 62.42 58.60 64.69Q60.39 66.96 63.85 66.96Q66.92 66.96 69.32 65.49Q71.72 64.02 73.06 62.35Q73.70 62.80 73.70 63.95Q73.70 65.36 72.52 66.99Q71.34 68.62 68.90 69.81Q66.47 70.99 62.63 70.99M57.51 52.62L58.15 52.62Q61.86 52.62 64.81 51.38Q67.75 50.13 69.45 47.92Q71.14 45.71 71.14 42.77Q71.14 38.48 67.43 38.48Q65.58 38.48 64.01 39.73Q62.44 40.98 61.16 43.06Q59.88 45.14 58.95 47.63Q58.02 50.13 57.51 52.62ZM78.50 85.71L87.02 45.14Q87.27 43.86 87.43 42.96Q87.59 42.06 87.59 41.74Q87.59 39.82 86.28 39.28Q84.97 38.74 83.11 38.74L82.60 38.74L83.18 36.05L94.50 36.05L92.97 44.56L93.29 44.56Q94.57 42.06 96.20 39.98Q97.83 37.90 99.98 36.66Q102.12 35.41 105 35.41Q108.90 35.41 111.02 38.38Q113.13 41.36 113.13 46.99Q113.13 49.74 112.36 52.98Q111.59 56.21 110.09 59.41Q108.58 62.61 106.31 65.23Q104.04 67.86 100.97 69.42Q97.90 70.99 94.06 70.99Q92.20 70.99 90.60 70.61Q89 70.22 87.78 69.52Q87.78 69.52 87.66 70.51Q87.53 71.50 87.27 72.59L86.38 76.50Q86.25 76.88 86.02 78.13Q85.80 79.38 85.80 80.08Q85.80 82 87.11 82.51Q88.42 83.02 90.28 83.02L91.11 83.02L90.54 85.71L78.50 85.71M93.86 68.11Q96.30 68.11 98.31 66.70Q100.33 65.30 101.86 62.93Q103.40 60.56 104.46 57.78Q105.51 54.99 106.06 52.14Q106.60 49.30 106.60 46.93Q106.60 45.07 106.25 43.34Q105.90 41.62 105.03 40.53Q104.17 39.44 102.57 39.44Q100.71 39.44 98.92 40.85Q97.13 42.26 95.59 44.46Q94.06 46.67 92.97 49.10Q91.88 51.54 91.43 53.65L88.81 65.81Q89.38 66.51 90.73 67.31Q92.07 68.11 93.86 68.11ZM125.86 70.99Q123.30 70.99 121.93 69.20Q120.55 67.41 120.55 64.91Q120.55 63.57 120.81 61.71Q121.06 59.86 121.38 58Q121.70 56.14 121.96 54.86L127.21 30.29Q127.40 29.39 127.50 28.56Q127.59 27.73 127.59 27.41Q127.59 25.49 126.28 24.94Q124.97 24.40 123.11 24.40L122.34 24.40L122.92 21.71L135.02 21.71L127.59 56.59Q127.40 57.30 127.18 58.64Q126.95 59.98 126.76 61.39Q126.57 62.80 126.57 63.70Q126.57 66.96 128.68 66.96Q129.70 66.96 130.89 66.48Q132.07 66 133.29 65.30L134.44 67.15Q133.03 68.43 130.66 69.71Q128.30 70.99 125.86 70.99ZM150.38 70.99Q144.94 70.99 141.51 67.70Q138.09 64.40 138.09 57.74Q138.09 54.22 139.24 50.32Q140.39 46.42 142.76 43.02Q145.13 39.63 148.71 37.52Q152.30 35.41 157.16 35.41Q160.55 35.41 163.30 36.75Q166.06 38.10 167.69 41.04Q169.32 43.98 169.32 48.66Q169.32 51.41 168.62 54.45Q167.91 57.49 166.44 60.43Q164.97 63.38 162.73 65.74Q160.49 68.11 157.38 69.55Q154.28 70.99 150.38 70.99M151.08 67.73Q154.22 67.73 156.42 65.71Q158.63 63.70 160.01 60.53Q161.38 57.36 162.02 53.90Q162.66 50.45 162.66 47.57Q162.66 42.77 161 40.72Q159.34 38.67 156.39 38.67Q153.90 38.67 151.98 40.02Q150.06 41.36 148.68 43.57Q147.30 45.78 146.44 48.46Q145.58 51.15 145.16 53.87Q144.74 56.59 144.74 58.90Q144.74 63.76 146.47 65.74Q148.20 67.73 151.08 67.73ZM166.44 85.71Q163.05 85.71 160.42 84.56L161.38 81.36Q162.15 81.62 163.27 81.84Q164.39 82.06 166.38 82.06Q169.51 82.06 172.17 80.94Q174.82 79.82 177.06 78.06Q179.30 76.30 181.13 74.29Q182.95 72.27 184.36 70.42L175.91 42.13Q175.34 40.21 174.34 39.47Q173.35 38.74 171.50 38.74L170.86 38.74L171.37 36.05L180.71 36.05L185.70 53.33Q186.15 54.99 186.76 57.30Q187.37 59.60 187.85 61.71Q188.33 63.82 188.39 64.91L188.58 64.91Q191.02 61.26 192.97 57.46Q194.92 53.65 196.07 50.10Q197.22 46.54 197.22 43.66Q197.22 42.32 196.55 41.26Q195.88 40.21 194.09 40.21Q194.09 37.90 195.40 36.69Q196.71 35.47 198.25 35.47Q200.23 35.47 201.42 36.82Q202.60 38.16 202.60 40.85Q202.60 45.84 199.53 52.37Q196.46 58.90 191.34 66.70Q188.20 71.57 185.54 75.15Q182.89 78.74 180.20 81.07Q177.51 83.41 174.22 84.56Q170.92 85.71 166.44 85.71Z"></path></svg>